:SAMPLES-PER-SECOND 30
:FULLY-SPECIFIED
:DEGREES
632
root  -65.4408 32.5023 -29.1481 5.5929 48.4608 -1.50183
RightUpLeg  -33.6136 -0.837677 -16.2322
RightLeg  34.8148 0.454277 0.259854
RightFoot  -8.69377 -0.0215263 0.0943656
RightToes  -38.3653 -0.205558 -0.305703
Spine  8.22058 0.901205 0.509026
Spine1  14.3671 1.99634 0.206598
HEad  14.4556 3.20138 5.51952
LeftShoulder1  0 -2.42657e-020 -4.95415e-022
LeftArm  6.80533 -2.60765 -83.7092
LeftForeArm  103.466 -79.8104 -82.3618
LeftHand  -0.916209 -3.29351 30.7761
RightShoulder  0 2.42657e-020 1.07489e-018
RightArm  -0.525155 8.2365 66.5692
RightForeArm  100.882 79.7679 98.6875
RightHand  -3.69125 18.2386 -22.3394
LeftUpLeg  -24.9704 -10.0473 0.448751
LeftLeg  40.6555 -7.10269 -5.32353
LeftFoot  -11.5945 0.180039 1.77315
LeftToes  -3.68816 3.33339e-006 -4.73431e-007
633
root  -65.272 32.5496 -27.9536 5.31714 52.7953 -1.62311
RightUpLeg  -31.8911 0.0192618 -18.4959
RightLeg  29.8051 -1.56815 -0.77728
RightFoot  -9.0006 0.00684633 0.46457
RightToes  -35.9545 -0.186999 -0.291148
Spine  7.86559 1.24859 0.660596
Spine1  13.7608 2.50564 0.878931
HEad  11.8936 1.0822 5.92492
LeftShoulder1  0 -2.42657e-020 -4.95415e-022
LeftArm  8.14446 -4.27412 -78.9398
LeftForeArm  111.784 -79.8916 -91.2363
LeftHand  -0.970364 -3.51496 30.5452
RightShoulder  0 2.42657e-020 1.07489e-018
RightArm  2.21134 6.31471 65.4841
RightForeArm  137.942 78.1792 121.355
RightHand  -4.68891 17.233 -29.8796
LeftUpLeg  -23.4708 -12.5408 1.90276
LeftLeg  39.9654 -8.61587 -6.28139
LeftFoot  -11.9964 0.234543 2.23192
LeftToes  -6.37421 3.33339e-006 -4.73431e-007
634
root  -65.0941 32.3834 -26.7251 4.6665 57.4734 -1.57599
RightUpLeg  -30.1846 0.186155 -20.1899
RightLeg  27.657 -2.46393 -1.10147
RightFoot  -8.48964 0.0168248 0.604281
RightToes  -35.4943 -0.183527 -0.288281
Spine  7.66837 1.3118 0.792476
Spine1  13.3792 2.52596 1.3266
HEad  9.84649 -1.18055 6.18294
LeftShoulder1  0 -2.42657e-020 -4.95415e-022
LeftArm  11.4151 -6.92924 -73.0863
LeftForeArm  128.401 -79.5026 -105.722
LeftHand  -1.179 -3.95682 32.8578
RightShoulder  0 2.42657e-020 1.07489e-018
RightArm  5.22948 5.38216 62.6518
RightForeArm  161.211 76.0591 133.917
RightHand  -5.96279 15.9707 -40.3822
LeftUpLeg  -22.7853 -14.425 3.24165
LeftLeg  41.5024 -10.4382 -8.01096
LeftFoot  -13.0526 0.345011 3.01512
LeftToes  -9.15693 3.33339e-006 -4.73431e-007
635
root  -64.8833 32.0228 -25.4114 3.67847 61.9533 -1.40125
RightUpLeg  -28.4584 -1.08698 -20.7463
RightLeg  27.4025 0.379401 0.160343
RightFoot  -7.5921 -0.0140101 0.166413
RightToes  -41.4688 -0.230322 -0.323268
Spine  7.72855 1.06699 0.684134
Spine1  13.444 2.03427 1.11833
HEad  8.43292 -2.68297 7.16861
LeftShoulder1  0 -2.42657e-020 -4.95415e-022
LeftArm  12.9117 -10.0628 -67.5668
LeftForeArm  149.035 -78.2776 -120.68
LeftHand  -1.4634 -4.35091 36.8501
RightShoulder  0 2.42657e-020 1.07489e-018
RightArm  8.24183 5.93903 59.7186
RightForeArm  176.699 74.4074 140.168
RightHand  -6.57968 13.5429 -51.3151
LeftUpLeg  -22.0162 -16.5393 4.6018
LeftLeg  43.7639 -11.7248 -9.71018
LeftFoot  -14.9739 0.528509 4.01988
LeftToes  -13.3231 3.33339e-006 -4.73431e-007
636
root  -64.6272 31.5067 -24.0058 2.36322 65.5854 -1.42712
RightUpLeg  -26.9425 -3.9095 -19.6947
RightLeg  28.2688 3.93932 1.79353
RightFoot  -8.48897 -0.0586259 -0.412409
RightToes  -43.7552 -0.249155 -0.335337
Spine  7.69504 0.910097 0.67881
Spine1  13.3191 1.67768 1.17383
HEad  7.52832 -4.40151 7.83883
LeftShoulder1  0 -2.42657e-020 -4.95415e-022
LeftArm  13.4025 -13.7579 -63.4519
LeftForeArm  164.797 -76.6688 -131.121
LeftHand  -1.87343 -4.95984 41.0475
RightShoulder  0 2.42657e-020 1.07489e-018
RightArm  9.92372 6.31132 56.8977
RightForeArm  -171.786 72.9141 144.462
RightHand  -6.59015 11.5699 -58.8751
LeftUpLeg  -21.0429 -18.6146 6.27396
LeftLeg  46.1482 -12.7426 -11.4197
LeftFoot  -17.5897 0.824638 5.32625
LeftToes  -18.72 3.33339e-006 -4.73431e-007
637
root  -64.3259 30.8641 -22.5199 1.14203 68.6716 -1.09174
RightUpLeg  -24.5892 -3.37911 -19.2043
RightLeg  29.1883 9.63187 4.55838
RightFoot  0.279942 0.000284344 0.260505
RightToes  -56.1384 -0.35846 -0.38705
Spine  7.66815 0.735285 0.351188
Spine1  13.2047 1.3742 0.535933
HEad  7.26514 -5.84202 9.05029
LeftShoulder1  0 -2.42657e-020 -4.95415e-022
LeftArm  12.9772 -18.5648 -58.8413
LeftForeArm  175.47 -75.1786 -137.567
LeftHand  -2.24447 -5.60593 43.2919
RightShoulder  0 2.42657e-020 1.07489e-018
RightArm  9.7949 6.52399 55.466
RightForeArm  -163.784 71.4814 147.777
RightHand  -6.55806 10.3047 -64.5255
LeftUpLeg  -20.0378 -20.124 7.94046
LeftLeg  49.0773 -13.63 -13.4444
LeftFoot  -20.3045 1.23773 6.90398
LeftToes  -24.464 3.33339e-006 -4.73431e-007
638
root  -64.0234 30.2536 -21.1914 -0.849548 71.0104 -0.722229
RightUpLeg  -26.8065 -4.01751 -18.3609
RightLeg  41.2595 9.74561 7.40021
RightFoot  -0.910397 -0.00283407 0.0208487
RightToes  -55.1832 -0.349657 -0.383914
Spine  7.99727 0.479595 0.058894
Spine1  13.6435 0.915873 -0.0630395
HEad  7.36022 -6.76098 9.70847
LeftShoulder1  0 -2.42657e-020 -4.95415e-022
LeftArm  11.9994 -23.3198 -55.4328
LeftForeArm  177.766 -75.0957 -137.886
LeftHand  -2.2043 -5.41856 43.9295
RightShoulder  0 2.42657e-020 1.07489e-018
RightArm  8.88763 7.91323 54.2187
RightForeArm  -159.907 71.1021 148.57
RightHand  -6.22403 9.16158 -67.9879
LeftUpLeg  -18.2299 -21.7247 8.9411
LeftLeg  51.905 -13.6692 -14.824
LeftFoot  -22.5964 1.62254 8.10834
LeftToes  -28.0113 3.33339e-006 -4.73431e-007
639
root  -63.717 30.0337 -20.0441 -4.18695 72.5813 -2.84259
RightUpLeg  -26.2658 -6.53237 -16.6048
RightLeg  46.2129 9.92105 8.95091
RightFoot  -3.78169 -0.0348131 -0.67706
RightToes  -55.9948 -0.357134 -0.382964
Spine  8.02234 0.0683796 0.221019
Spine1  13.5526 0.104654 0.125965
HEad  7.54084 -6.62864 9.19319
LeftShoulder1  0 -2.42657e-020 -4.95415e-022
LeftArm  11.5521 -26.8904 -53.9582
LeftForeArm  175.619 -75.7929 -135.195
LeftHand  -2.17503 -5.21555 44.9357
RightShoulder  0 2.42657e-020 1.07489e-018
RightArm  7.85201 9.65604 52.6642
RightForeArm  -158.691 71.2017 148.384
RightHand  -5.87676 8.29894 -70.2324
LeftUpLeg  -16.1298 -22.4017 10.6296
LeftLeg  51.9915 -13.9141 -15.1162
LeftFoot  -23.5913 1.80437 8.62471
LeftToes  -30.4221 3.33339e-006 -4.73431e-007
640
root  -63.4482 30.109 -19.1204 -5.75562 74.5887 -4.21753
RightUpLeg  -24.6283 -10.0683 -15.4487
RightLeg  47.3425 10.6772 9.9951
RightFoot  -5.95209 -0.0890887 -1.3361
RightToes  -55.1229 -0.349103 -0.382772
Spine  7.66281 -0.549033 0.319977
Spine1  12.8741 -1.09079 0.140447
HEad  7.47356 -6.23184 8.56925
LeftShoulder1  0 -2.42657e-020 -4.95415e-022
LeftArm  10.7273 -29.5865 -54.2257
LeftForeArm  169.533 -77.1502 -128.603
LeftHand  -2.15685 -5.27556 44.132
RightShoulder  0 2.42657e-020 1.07489e-018
RightArm  5.64364 10.8273 51.9384
RightForeArm  -158.069 71.3983 147.995
RightHand  -5.97604 8.23865 -71.5402
LeftUpLeg  -14.6994 -23.4044 12.1912
LeftLeg  50.0447 -15 -15.1931
LeftFoot  -22.9648 1.78411 8.76656
LeftToes  -33.3723 3.33339e-006 -4.73431e-007
641
root  -63.2398 30.5699 -18.3993 -6.44641 74.9696 -5.22162
RightUpLeg  -23.0982 -10.2393 -14.0199
RightLeg  45.5404 10.536 9.27582
RightFoot  -5.63001 -0.0790281 -1.22972
RightToes  -54.4296 -0.342749 -0.381337
Spine  7.01962 -0.907957 0.345875
Spine1  11.6143 -1.80487 0.1206
HEad  7.735 -4.99518 8.43083
LeftShoulder1  0 -2.42657e-020 -4.95415e-022
LeftArm  9.1542 -31.5425 -54.4383
LeftForeArm  159.778 -78.6579 -117.418
LeftHand  -2.37883 -6.09783 42.2654
RightShoulder  0 2.42657e-020 1.07489e-018
RightArm  3.41175 12.0154 52.2388
RightForeArm  -162.509 73.4454 143.167
RightHand  -5.85404 8.15541 -70.9712
LeftUpLeg  -12.4894 -24.2476 13.2311
LeftLeg  45.907 -16.0547 -14.0955
LeftFoot  -20.5147 1.4296 7.88788
LeftToes  -35.2438 3.33339e-006 -4.73431e-007
642
root  -63.1466 31.1951 -17.8608 -5.7771 74.4028 -5.34003
RightUpLeg  -21.4744 -9.67034 -12.6132
RightLeg  41.3415 10.6768 8.11694
RightFoot  -4.15311 -0.0448056 -0.858273
RightToes  -53.1481 -0.331081 -0.376746
Spine  6.41656 -1.18085 0.228966
Spine1  10.4934 -2.32647 -0.141912
HEad  7.09077 -3.2935 8.71513
LeftShoulder1  0 -2.42657e-020 -4.95415e-022
LeftArm  5.25044 -34.7475 -54.0283
LeftForeArm  135.755 -79.9238 -90.7495
LeftHand  -2.53879 -6.72049 41.0216
RightShoulder  0 2.42657e-020 1.07489e-018
RightArm  0.126392 16.0282 54.2154
RightForeArm  -178.605 77.6032 126.019
RightHand  -6.27742 9.24998 -67.9298
LeftUpLeg  -10.6854 -23.68 13.9711
LeftLeg  41.5556 -16.8494 -12.7094
LeftFoot  -16.6939 0.938016 6.38671
LeftToes  -36.684 3.33339e-006 -4.73431e-007
643
root  -63.1508 31.8354 -17.4667 -4.65186 73.0387 -5.3219
RightUpLeg  -20.0571 -7.58636 -11.2114
RightLeg  35.8771 10.2572 6.38435
RightFoot  -1.83047 -0.0110638 -0.315124
RightToes  -51.9024 -0.319841 -0.372035
Spine  5.75003 -1.27508 0.0596913
Spine1  9.2727 -2.52308 -0.391587
HEad  6.90345 -1.4431 8.39817
LeftShoulder1  0 -2.42657e-020 -4.95415e-022
LeftArm  -0.249825 -38.1881 -54.6996
LeftForeArm  101.297 -77.6384 -53.9677
LeftHand  -2.31256 -6.75148 37.4452
RightShoulder  0 2.42657e-020 1.07489e-018
RightArm  -5.21736 22.8781 59.0236
RightForeArm  125.766 79.1824 67.9199
RightHand  -7.20528 12.016 -61.4354
LeftUpLeg  -9.26611 -21.7335 14.481
LeftLeg  37.556 -16.7583 -10.9596
LeftFoot  -12.4895 0.498163 4.55019
LeftToes  -37.4481 3.33339e-006 -4.73431e-007
644
root  -63.1875 32.3587 -17.184 -3.1969 71.0247 -4.57086
RightUpLeg  -18.7469 -4.40692 -10.31
RightLeg  30.7728 9.38017 4.75834
RightFoot  0.499815 0.00109923 0.125357
RightToes  -50.346 -0.305946 -0.365807
Spine  5.11535 -1.10469 -0.16244
Spine1  8.09374 -2.21498 -0.644938
HEad  8.20073 0.122722 7.99382
LeftShoulder1  0 -2.42657e-020 -4.95415e-022
LeftArm  -6.79134 -40.8595 -57.4128
LeftForeArm  79.5401 -72.0053 -32.9999
LeftHand  -1.96798 -8.02794 27.1597
RightShoulder  0 2.42657e-020 1.07489e-018
RightArm  -9.71818 30.953 64.1172
RightForeArm  85.4403 69.994 28.9982
RightHand  -7.73794 15.9906 -51.0687
LeftUpLeg  -7.65541 -19.138 14.3272
LeftLeg  34.4192 -15.6923 -9.141
LeftFoot  -8.82845 0.225556 2.92124
LeftToes  -37.9361 3.33339e-006 -4.73431e-007
645
root  -63.1923 32.7294 -16.9884 -2.19617 69.8882 -3.97717
RightUpLeg  -17.3273 -1.9683 -9.86712
RightLeg  26.6638 8.27804 3.48987
RightFoot  2.41738 -0.000152138 0.384649
RightToes  -49.1242 -0.295159 -0.360655
Spine  4.64906 -1.00313 -0.322222
Spine1  7.26006 -2.03024 -0.865918
HEad  9.64488 1.07038 7.62625
LeftShoulder1  0 -2.42657e-020 -4.95415e-022
LeftArm  -11.2294 -43.6505 -60.3971
LeftForeArm  64.4121 -67.9301 -25.8787
LeftHand  -0.550214 -4.52094 13.5215
RightShoulder  0 2.42657e-020 1.07489e-018
RightArm  -13.515 36.5633 68.5739
RightForeArm  68.1748 64.3993 21.6334
RightHand  -6.12068 18.5589 -35.8798
LeftUpLeg  -6.57918 -17.1715 13.9157
LeftLeg  32.4162 -14.136 -7.63044
LeftFoot  -6.12151 0.0959294 1.79389
LeftToes  -37.7821 3.33339e-006 -4.73431e-007
646
root  -63.1469 32.9631 -16.8628 -1.7511 70.1473 -4.00763
RightUpLeg  -16.1181 -0.980074 -9.58984
RightLeg  23.8202 7.08839 2.58823
RightFoot  3.65819 -0.00286808 0.467271
RightToes  -48.0471 -0.285743 -0.355924
Spine  4.40238 -1.13948 -0.378956
Spine1  6.86911 -2.36643 -0.862475
HEad  9.67255 1.19359 7.33437
LeftShoulder1  0 -2.42657e-020 -4.95415e-022
LeftArm  -14.5708 -43.8184 -63.5154
LeftForeArm  56.2954 -65.9684 -23.3909
LeftHand  -0.381971 -3.71003 11.4037
RightShoulder  0 2.42657e-020 1.07489e-018
RightArm  -14.4653 38.3864 70.2873
RightForeArm  60.2555 61.7202 19.1761
RightHand  -5.72487 17.4917 -35.652
LeftUpLeg  -6.35404 -16.5131 13.6356
LeftLeg  31.158 -12.3285 -6.33977
LeftFoot  -4.39542 0.0425626 1.10905
LeftToes  -37.7006 3.33339e-006 -4.73431e-007
